<svg width="18" height="18" fill="none" xmlns="http://www.w3.org/2000/svg"><path d="M9 0C5.198 0 0 2.874 0 9c0 5.97 5 9 9 9 6.863 0 9-6.013 9-9 0-4.408-3.373-9-9-9zM6.913.847c-.939.8-1.719 2.126-2.222 3.77a8.361 8.361 0 01-1.782-1.42A8.432 8.432 0 016.913.846zm-4.39 2.781a8.824 8.824 0 002.009 1.566 15.217 15.217 0 00-.46 3.515H.587a8.383 8.383 0 011.935-5.08zm0 10.744A8.361 8.361 0 01.588 9.29h3.483a15.19 15.19 0 00.46 3.514 9.086 9.086 0 00-2.008 1.567zm.386.435a8.36 8.36 0 011.782-1.42c.503 1.64 1.283 2.969 2.222 3.77a8.49 8.49 0 01-4.004-2.35zm5.8 2.59c-1.509-.19-2.81-1.877-3.511-4.294a8.47 8.47 0 013.511-.903v5.198zm0-5.775a9.015 9.015 0 00-3.66.91 15.2 15.2 0 01-.4-3.241h4.06v2.331zm0-2.913H4.65a15.2 15.2 0 01.4-3.242 9.043 9.043 0 003.66.911v2.331zm0-2.909a8.402 8.402 0 01-3.511-.903C5.9 2.477 7.2.794 8.709.602V5.8zm6.768-2.172a8.383 8.383 0 011.935 5.081h-3.48a15.198 15.198 0 00-.46-3.515 8.986 8.986 0 002.005-1.566zm-.386-.435a8.363 8.363 0 01-1.782 1.42c-.503-1.64-1.283-2.965-2.222-3.77a8.49 8.49 0 014.004 2.35zM9.29.603c1.509.19 2.81 1.877 3.511 4.294A8.456 8.456 0 019.29 5.8V.602zm0 5.775a9.015 9.015 0 003.66-.91c.237.991.379 2.086.4 3.241H9.29V6.378zm0 2.913h4.06a15.202 15.202 0 01-.4 3.242 8.903 8.903 0 00-3.66-.911V9.291zm0 8.107V12.2a8.402 8.402 0 013.511.903c-.702 2.42-2.002 4.103-3.511 4.295zm1.796-.245c.939-.8 1.719-2.126 2.222-3.77.652.386 1.25.865 1.782 1.42a8.433 8.433 0 01-4.004 2.35zm4.39-2.781a8.987 8.987 0 00-2.005-1.566c.276-1.074.439-2.265.46-3.515h3.48a8.383 8.383 0 01-1.935 5.08z" fill="#fff"/></svg>