<svg width="24" height="24" fill="none" xmlns="http://www.w3.org/2000/svg"><path d="M12 2.162c3.204 0 3.584.012 4.849.07.76.009 1.514.149 2.228.413a3.974 3.974 0 012.278 2.278 6.64 6.64 0 01.413 2.228c.058 1.265.07 1.645.07 4.85 0 3.205-.012 3.583-.07 4.848a6.64 6.64 0 01-.413 2.228 3.973 3.973 0 01-2.278 2.278 6.64 6.64 0 01-2.228.413c-1.265.058-1.645.07-4.849.07s-3.584-.012-4.849-.07a6.64 6.64 0 01-2.228-.413 3.974 3.974 0 01-2.278-2.278 6.642 6.642 0 01-.413-2.228c-.058-1.265-.07-1.645-.07-4.849s.012-3.584.07-4.849c.009-.76.149-1.514.413-2.228a3.975 3.975 0 012.278-2.278 6.642 6.642 0 012.228-.413c1.265-.058 1.645-.07 4.849-.07zM12 0C8.741 0 8.332.014 7.052.072A8.81 8.81 0 004.14.63 6.136 6.136 0 00.63 4.14a8.807 8.807 0 00-.558 2.913C.014 8.333 0 8.74 0 12s.014 3.668.072 4.948c.02.995.209 1.98.558 2.912a6.136 6.136 0 003.51 3.51c.932.35 1.917.538 2.913.558C8.333 23.986 8.741 24 12 24c3.259 0 3.668-.014 4.948-.072a8.808 8.808 0 002.913-.558 6.137 6.137 0 003.51-3.51 8.808 8.808 0 00.557-2.913C23.986 15.667 24 15.26 24 12s-.014-3.668-.072-4.948a8.808 8.808 0 00-.558-2.912A6.137 6.137 0 0019.86.63a8.807 8.807 0 00-2.913-.557C15.667.013 15.26 0 12 0z" fill="#fff"/></svg>